<svg xmlns="http://www.w3.org/2000/svg" width="805" height="600"><rect width="805" height="600" x="0" y="0" fill="#FFFFFF" id="backgorund"/><g id="viz"><clipPath id="serieClipPath"><rect x="-50" y="-10" width="805" height="600"/></clipPath><g transform="translate(0,0)"><g transform="translate(50,10)" clip-path="url(#serieClipPath)"><g id="axis"><g transform="translate(0,570)" fill="none" font-size="10" font-family="sans-serif" text-anchor="middle"><path class="domain" stroke="currentColor" d="M0.5,6V0.5H740.5V6"/><g class="tick" opacity="1" transform="translate(0.5,0)"><line stroke="currentColor" y2="6"/><text fill="currentColor" y="9" dy="0.71em">0100</text></g><g class="tick" opacity="1" transform="translate(82.67219348950411,0)"><line stroke="currentColor" y2="6"/><text fill="currentColor" y="9" dy="0.71em">0101</text></g><g class="tick" opacity="1" transform="translate(164.84438697900822,0)"><line stroke="currentColor" y2="6"/><text fill="currentColor" y="9" dy="0.71em">0102</text></g><g class="tick" opacity="1" transform="translate(247.0165804685123,0)"><line stroke="currentColor" y2="6"/><text fill="currentColor" y="9" dy="0.71em">0103</text></g><g class="tick" opacity="1" transform="translate(329.18877395801644,0)"><line stroke="currentColor" y2="6"/><text fill="currentColor" y="9" dy="0.71em">0104</text></g><g class="tick" opacity="1" transform="translate(411.586096744752,0)"><line stroke="currentColor" y2="6"/><text fill="currentColor" y="9" dy="0.71em">0105</text></g><g class="tick" opacity="1" transform="translate(493.75829023425615,0)"><line stroke="currentColor" y2="6"/><text fill="currentColor" y="9" dy="0.71em">0106</text></g><g class="tick" opacity="1" transform="translate(575.9304837237602,0)"><line stroke="currentColor" y2="6"/><text fill="currentColor" y="9" dy="0.71em">0107</text></g><g class="tick" opacity="1" transform="translate(658.1026772132644,0)"><line stroke="currentColor" y2="6"/><text fill="currentColor" y="9" dy="0.71em">0108</text></g><g class="tick" opacity="1" transform="translate(740.5,0)"><line stroke="currentColor" y2="6"/><text fill="currentColor" y="9" dy="0.71em">0109</text></g><text x="740" dy="-5" text-anchor="end" style="font-family: Arial, sans-serif; font-size: 12px; fill: rgb(123, 123, 123); font-weight: bold;">年別</text></g><g transform="translate(0,0)" fill="none" font-size="10" font-family="sans-serif" text-anchor="end"><path class="domain" stroke="currentColor" d="M0.5,570.5V0.5"/><g class="tick" opacity="1" transform="translate(0,570.5)"><line stroke="currentColor" x2="-6"/><text fill="currentColor" x="-9" dy="0.32em">1,000,000</text></g><g class="tick" opacity="1" transform="translate(0,529.7857142857143)"><line stroke="currentColor" x2="-6"/><text fill="currentColor" x="-9" dy="0.32em">1,500,000</text></g><g class="tick" opacity="1" transform="translate(0,489.0714285714286)"><line stroke="currentColor" x2="-6"/><text fill="currentColor" x="-9" dy="0.32em">2,000,000</text></g><g class="tick" opacity="1" transform="translate(0,448.35714285714283)"><line stroke="currentColor" x2="-6"/><text fill="currentColor" x="-9" dy="0.32em">2,500,000</text></g><g class="tick" opacity="1" transform="translate(0,407.64285714285717)"><line stroke="currentColor" x2="-6"/><text fill="currentColor" x="-9" dy="0.32em">3,000,000</text></g><g class="tick" opacity="1" transform="translate(0,366.9285714285714)"><line stroke="currentColor" x2="-6"/><text fill="currentColor" x="-9" dy="0.32em">3,500,000</text></g><g class="tick" opacity="1" transform="translate(0,326.2142857142857)"><line stroke="currentColor" x2="-6"/><text fill="currentColor" x="-9" dy="0.32em">4,000,000</text></g><g class="tick" opacity="1" transform="translate(0,285.5)"><line stroke="currentColor" x2="-6"/><text fill="currentColor" x="-9" dy="0.32em">4,500,000</text></g><g class="tick" opacity="1" transform="translate(0,244.7857142857143)"><line stroke="currentColor" x2="-6"/><text fill="currentColor" x="-9" dy="0.32em">5,000,000</text></g><g class="tick" opacity="1" transform="translate(0,204.07142857142856)"><line stroke="currentColor" x2="-6"/><text fill="currentColor" x="-9" dy="0.32em">5,500,000</text></g><g class="tick" opacity="1" transform="translate(0,163.35714285714286)"><line stroke="currentColor" x2="-6"/><text fill="currentColor" x="-9" dy="0.32em">6,000,000</text></g><g class="tick" opacity="1" transform="translate(0,122.64285714285715)"><line stroke="currentColor" x2="-6"/><text fill="currentColor" x="-9" dy="0.32em">6,500,000</text></g><g class="tick" opacity="1" transform="translate(0,81.92857142857146)"><line stroke="currentColor" x2="-6"/><text fill="currentColor" x="-9" dy="0.32em">7,000,000</text></g><g class="tick" opacity="1" transform="translate(0,41.214285714285694)"><line stroke="currentColor" x2="-6"/><text fill="currentColor" x="-9" dy="0.32em">7,500,000</text></g><g class="tick" opacity="1" transform="translate(0,0.5)"><line stroke="currentColor" x2="-6"/><text fill="currentColor" x="-9" dy="0.32em">8,000,000</text></g><text x="4" text-anchor="start" dominant-baseline="hanging" style="font-family: Arial, sans-serif; font-size: 12px; fill: rgb(123, 123, 123); font-weight: bold;">小計</text></g></g><g id="viz"><g><path d="M0,359.20365857142855L13.695365581584019,355.90705C27.390731163168038,352.61044142857145,54.781462326336076,346.0172242857143,82.17219348950411,339.13824714285715C109.56292465267215,332.25927,136.9536558158402,325.09453285714284,164.34438697900822,313.4853564285714C191.73511814217625,301.87618,219.1258493053443,285.82256428571424,246.5165804685123,275.1357699999999C273.90731163168033,264.4489757142857,301.2980427948484,259.12900285714284,328.726295507555,245.3408114285714C356.15454822026163,231.55261999999996,383.6203224825069,209.29620999999997,411.04857519521346,187.9905464285714C438.47682790792004,166.68488285714284,465.8675590710881,146.3299657142857,493.2582902342561,130.82060499999997C520.6490213974242,115.31124428571428,548.0397525605922,104.64744000000002,575.4304837237602,90.18939000000002C602.8212148869283,75.73134000000003,630.2119460500963,57.47904428571431,657.6401987628029,135.50789142857144C685.0684514755097,213.53673857142857,712.5342257377548,387.8467285714285,726.2671128688775,475.00172357142856L740,562.1567185714285" stroke="#1f77b4" fill="none"/><text font-family="sans-serif" font-size="10" class="labels" x="657.6026772132644" y="39.226748571428594" dx="0" dy="-4" text-anchor="middle"/></g></g></g><text y="4" x="4" style="font-family: Arial, sans-serif; font-size: 12px; fill: black; font-weight: bold; dominant-baseline: hanging;"/></g><g id="grid"><rect x="0" y="0" width="805" height="600" fill="none" stroke="#ccc"/></g></g></svg>